<svg width="600" height="735" viewBox="0 0 600 735" fill="none" xmlns="http://www.w3.org/2000/svg">
<path d="M599.414 300.501C599.519 261.144 591.871 222.151 576.906 185.75C561.942 149.348 539.955 116.251 512.199 88.3469C456.144 31.9922 379.999 0.213242 300.513 0.00106925C221.028 -0.211104 144.714 31.1609 88.3593 87.2155C32.0046 143.27 0.225689 219.416 0.0135154 298.901C-0.690387 391.242 26.1154 481.701 77.0147 558.751C127.914 635.8 200.601 695.95 285.813 731.534C290.169 733.506 294.899 734.518 299.68 734.501C304.496 734.51 309.259 733.487 313.647 731.501C398.599 696.025 471.107 636.126 521.981 559.397C572.855 482.668 599.804 392.563 599.414 300.501ZM299.68 664.501C229.411 633.564 169.824 582.597 128.369 517.973C86.9147 453.348 65.434 377.936 66.6135 301.168C66.6135 270.561 72.642 240.254 84.3547 211.977C96.0673 183.7 113.235 158.007 134.877 136.365C156.519 114.722 182.212 97.5549 210.489 85.8422C238.766 74.1295 269.073 68.1011 299.68 68.1011C330.287 68.1011 360.594 74.1295 388.871 85.8422C417.148 97.5549 442.841 114.722 464.483 136.365C486.125 158.007 503.293 183.7 515.006 211.977C526.718 240.254 532.747 270.561 532.747 301.168C532.747 301.868 532.747 302.668 532.747 303.334C533.555 379.748 511.896 454.715 470.461 518.925C429.026 583.134 369.64 633.755 299.68 664.501ZM299.68 167.834C273.309 167.834 247.531 175.654 225.604 190.305C203.678 204.956 186.588 225.78 176.496 250.143C166.405 274.507 163.764 301.316 168.909 327.18C174.053 353.044 186.752 376.802 205.399 395.449C224.046 414.096 247.804 426.794 273.668 431.939C299.532 437.084 326.341 434.443 350.705 424.352C375.068 414.26 395.892 397.17 410.543 375.244C425.194 353.317 433.013 327.539 433.013 301.168C433.013 265.806 418.966 231.892 393.961 206.887C368.956 181.882 335.042 167.834 299.68 167.834ZM299.68 367.834C286.495 367.834 273.605 363.924 262.642 356.599C251.679 349.274 243.134 338.862 238.088 326.68C233.042 314.498 231.722 301.094 234.294 288.162C236.867 275.23 243.216 263.351 252.54 254.027C261.863 244.704 273.742 238.354 286.674 235.782C299.606 233.21 313.011 234.53 325.192 239.576C337.374 244.622 347.786 253.166 355.111 264.13C362.437 275.093 366.347 287.982 366.347 301.168C366.347 318.849 359.323 335.806 346.821 348.308C334.318 360.811 317.361 367.834 299.68 367.834Z" fill="white"/>
</svg>
