<svg width="496" height="497" viewBox="0 0 496 497" fill="none" xmlns="http://www.w3.org/2000/svg">
<path fill-rule="evenodd" clip-rule="evenodd" d="M51.6298 67.5824C79.7898 37.9184 89.7418 29.5984 101.742 25.7264C110.046 23.5504 118.756 23.4295 127.118 25.3745C138.126 28.5745 141.038 31.0064 177.133 66.9744C208.845 98.5584 212.013 101.982 215.053 108.158C220.867 118.999 221.776 131.806 217.549 143.358C214.349 152.158 209.805 157.982 190.573 177.278L178.029 189.856C174.736 193.203 173.962 198.285 176.109 202.464C203.981 250.01 243.52 289.661 290.989 317.664C296.454 320.589 303.184 319.645 307.629 315.328L319.693 303.456C327.149 295.811 335.046 288.611 343.341 281.888C356.371 273.888 372.605 273.174 386.285 280C392.973 283.2 395.181 285.184 427.885 317.824C461.613 351.456 462.573 352.512 466.285 360.224C473.27 372.989 473.197 388.451 466.093 401.152C462.477 408.32 460.269 410.912 441.293 430.304C429.837 442.016 419.053 452.704 417.325 454.272C401.67 467.232 381.587 473.59 361.325 472C324.256 468.621 288.374 457.162 256.205 438.432C184.947 400.675 124.283 345.667 79.7578 278.432C70.0598 264.358 61.4381 249.574 53.9657 234.208C33.9203 199.85 23.569 160.701 24.0138 120.926C25.544 100.119 35.5226 80.8439 51.6298 67.5824Z" stroke="white" stroke-width="48" stroke-linecap="round" stroke-linejoin="round"/>
</svg>
